<svg xmlns="http://www.w3.org/2000/svg" fill="none" viewBox="46 7 86 20">
  <path fill="#111827" d="M56.557 22v-6.876q0-1.11-.662-1.772-.637-.685-1.701-.685-1.276 0-2.127.969t-.874 2.504V22H48.31V10.611h2.883v2.198a4.65 4.65 0 0 1 1.607-1.796q1.063-.685 2.457-.685 1.323 0 2.363.638 1.04.615 1.465 1.795a4.1 4.1 0 0 1 1.678-1.795q1.11-.639 2.504-.638 1.961 0 3.166 1.205 1.23 1.181 1.229 3.213V22h-2.883v-6.64q0-1.276-.661-1.984-.638-.71-1.749-.71-1.228 0-2.08.922-.85.922-.85 2.316V22zm18.687.33q-1.677 0-3-.779a5.8 5.8 0 0 1-2.056-2.174q-.733-1.37-.733-3.071 0-1.725.733-3.072a5.6 5.6 0 0 1 2.055-2.15q1.324-.803 2.978-.803 1.417 0 2.575.59a4.47 4.47 0 0 1 1.843 1.654v-1.914h2.883V22h-2.883v-1.914a4.4 4.4 0 0 1-1.843 1.678q-1.158.567-2.552.567m.733-2.291q1.583 0 2.622-1.016 1.04-1.016 1.04-2.717t-1.04-2.718-2.622-1.016q-1.608 0-2.6 1.04-.992 1.015-.992 2.694 0 1.677.992 2.717.993 1.016 2.6 1.016m14.077 2.292q-2.646 0-4.182-1.11-1.536-1.135-1.583-2.93l2.788-.19q0 .993.803 1.63.828.639 2.198.639 1.18 0 1.772-.426.614-.45.614-1.11 0-.637-.567-.969-.567-.33-1.441-.52a67 67 0 0 0-1.89-.378q-.993-.19-1.867-.52a3.7 3.7 0 0 1-1.442-.945q-.567-.614-.567-1.654 0-1.653 1.442-2.599 1.44-.969 3.757-.969 2.22 0 3.638.922 1.442.897 1.536 2.48l-2.717.166q-.024-.708-.662-1.205-.615-.52-1.819-.52-1.04 0-1.63.402-.591.378-.591.992 0 .591.567.898t1.441.473l1.867.354a8.8 8.8 0 0 1 1.89.52q.874.33 1.441.993.568.638.568 1.772 0 1.771-1.442 2.788-1.44 1.016-3.922 1.016m12.568 0q-1.89 0-3.072-1.016-1.158-1.016-1.157-2.86v-5.67h-2.505v-2.174h2.504v-3.45h2.883v3.45h3.733v2.174h-3.733v5.293q0 1.015.449 1.465.472.425 1.276.425.473 0 .992-.165.52-.189.898-.591l.449 2.363q-.402.33-1.158.543a5.7 5.7 0 0 1-1.559.213m4.297-.331V10.611h2.883v2.387a3.73 3.73 0 0 1 1.465-1.961q1.086-.757 2.552-.757.425 0 .827.095.425.07.85.26l-.283 2.74a4.5 4.5 0 0 0-.898-.4 3.3 3.3 0 0 0-.992-.143q-.496 0-1.111.166-.591.165-1.158.59-.543.426-.898 1.205-.354.757-.354 1.938V22zm14.658.33q-1.677 0-3-.779a5.8 5.8 0 0 1-2.056-2.174q-.732-1.37-.732-3.071 0-1.725.732-3.072a5.6 5.6 0 0 1 2.056-2.15q1.323-.803 2.977-.803 1.417 0 2.575.59a4.47 4.47 0 0 1 1.843 1.654v-1.914h2.883V22h-2.883v-1.914a4.4 4.4 0 0 1-1.843 1.678q-1.157.567-2.552.567m.733-2.291q1.583 0 2.623-1.016t1.039-2.717q0-1.702-1.039-2.718-1.04-1.016-2.623-1.016-1.607 0-2.599 1.04-.993 1.015-.993 2.694 0 1.677.993 2.717.992 1.016 2.599 1.016"/>
</svg>
